<svg xmlns="http://www.w3.org/2000/svg" width="20" height="18" viewBox="0 0 20 18" fill="none">
  <path d="M1.34126e-06 5.99399C-0.000525832 5.2062 0.154353 4.42603 0.455768 3.69818C0.757183 2.97032 1.19921 2.30907 1.75655 1.7523C2.31388 1.19552 2.97558 0.75415 3.70373 0.453463C4.43189 0.152776 5.21221 -0.00132227 6 -6.90854e-06H14C17.313 -6.90854e-06 20 2.69499 20 5.99399V18H6C2.687 18 1.34126e-06 15.305 1.34126e-06 12.006V5.99399ZM12 7.99999V9.99999H14V7.99999H12ZM6 7.99999V9.99999H8V7.99999H6Z" fill="white"/>
</svg>